<?xml version="1.0" encoding="UTF-8"?>
<svg xmlns="http://www.w3.org/2000/svg"
     width="452" height="1575"
     viewBox="0 0 452 1575"
     role="img" aria-label="Vertical dark green serpentine dragon silhouette">
  <path d="M 162 26 L 158 34 L 157 37 L 156 40 L 155 44 L 154 50 L 153 58 L 153 69 L 154 79 L 155 86 L 156 92 L 157 93 L 157 101 L 151 95 L 147 93 L 144 91 L 142 89 L 141 87 L 140 85 L 139 81 L 139 78 L 136 80 L 134 78 L 131 72 L 130 69 L 129 66 L 128 62 L 128 58 L 127 56 L 127 58 L 126 59 L 126 69 L 127 75 L 130 84 L 133 90 L 135 93 L 141 99 L 155 112 L 157 115 L 159 118 L 161 122 L 164 128 L 166 133 L 168 141 L 170 146 L 171 151 L 166 146 L 163 144 L 155 140 L 152 140 L 149 138 L 144 133 L 143 131 L 142 129 L 142 120 L 140 121 L 139 125 L 139 136 L 140 139 L 141 141 L 143 144 L 145 146 L 146 146 L 149 149 L 155 152 L 154 154 L 158 158 L 160 161 L 160 163 L 160 166 L 158 163 L 152 158 L 149 156 L 144 154 L 141 153 L 134 152 L 128 149 L 120 141 L 117 135 L 116 132 L 115 130 L 115 136 L 116 143 L 117 147 L 118 150 L 121 156 L 124 160 L 127 163 L 130 165 L 136 168 L 133 169 L 129 168 L 131 170 L 134 176 L 134 178 L 132 179 L 134 181 L 135 181 L 136 182 L 137 185 L 139 188 L 147 195 L 143 196 L 129 195 L 121 191 L 118 189 L 115 186 L 113 183 L 112 181 L 111 179 L 110 177 L 110 182 L 111 187 L 112 191 L 113 194 L 116 200 L 119 204 L 123 208 L 126 210 L 129 212 L 132 213 L 135 213 L 138 214 L 144 217 L 147 219 L 150 222 L 151 224 L 149 225 L 147 223 L 145 222 L 143 221 L 140 220 L 137 219 L 131 218 L 126 218 L 121 219 L 118 220 L 116 221 L 114 222 L 111 224 L 108 228 L 111 226 L 113 225 L 122 225 L 126 227 L 132 230 L 140 238 L 147 243 L 157 247 L 159 248 L 161 250 L 157 252 L 153 253 L 146 253 L 143 252 L 141 251 L 138 248 L 136 247 L 139 251 L 139 252 L 143 256 L 147 259 L 149 260 L 151 261 L 154 262 L 157 263 L 161 264 L 154 266 L 148 267 L 142 267 L 138 266 L 135 265 L 131 263 L 125 259 L 118 256 L 111 254 L 105 254 L 98 253 L 96 248 L 96 246 L 107 235 L 106 230 L 104 229 L 102 228 L 98 227 L 92 226 L 68 226 L 65 225 L 62 224 L 56 221 L 49 214 L 46 208 L 45 205 L 45 194 L 46 190 L 47 187 L 48 184 L 54 171 L 55 168 L 56 163 L 56 154 L 55 151 L 54 148 L 47 141 L 45 140 L 42 139 L 34 139 L 31 140 L 29 141 L 27 142 L 24 145 L 26 145 L 31 142 L 35 141 L 39 141 L 43 142 L 45 143 L 50 148 L 51 150 L 52 152 L 53 156 L 53 161 L 52 165 L 51 168 L 50 171 L 46 178 L 44 183 L 43 186 L 42 189 L 41 193 L 41 207 L 42 211 L 45 217 L 49 222 L 51 224 L 56 227 L 61 229 L 65 230 L 71 231 L 95 231 L 98 232 L 100 233 L 100 236 L 93 242 L 90 248 L 90 252 L 91 257 L 89 258 L 84 260 L 81 262 L 77 265 L 73 271 L 77 268 L 80 266 L 88 262 L 91 261 L 94 260 L 102 259 L 106 259 L 107 260 L 112 260 L 115 261 L 122 264 L 132 270 L 135 271 L 138 272 L 154 272 L 159 271 L 164 269 L 173 270 L 171 272 L 181 272 L 183 273 L 185 274 L 189 278 L 192 285 L 194 280 L 194 276 L 195 278 L 196 279 L 196 282 L 194 286 L 195 293 L 194 296 L 193 296 L 188 300 L 184 302 L 186 302 L 189 304 L 194 302 L 195 305 L 194 308 L 193 310 L 189 314 L 189 315 L 188 317 L 191 315 L 195 316 L 193 318 L 193 320 L 188 327 L 187 330 L 189 329 L 191 328 L 192 330 L 190 332 L 189 334 L 188 337 L 187 341 L 187 345 L 188 346 L 189 350 L 189 345 L 190 343 L 192 341 L 192 340 L 195 340 L 194 352 L 196 354 L 198 350 L 199 357 L 200 361 L 202 364 L 202 365 L 204 368 L 205 360 L 207 366 L 210 372 L 212 375 L 212 371 L 214 370 L 215 360 L 217 363 L 220 368 L 223 378 L 221 376 L 220 373 L 218 372 L 218 374 L 216 377 L 212 382 L 202 392 L 193 399 L 179 413 L 174 419 L 171 423 L 169 426 L 165 434 L 162 437 L 157 440 L 151 446 L 148 450 L 145 455 L 143 460 L 143 463 L 142 466 L 139 469 L 134 479 L 131 474 L 127 470 L 123 468 L 121 466 L 120 462 L 119 460 L 115 456 L 112 455 L 110 453 L 110 447 L 107 441 L 107 437 L 109 433 L 110 428 L 110 422 L 112 420 L 113 418 L 113 412 L 112 410 L 111 409 L 110 409 L 109 405 L 108 403 L 104 399 L 102 398 L 100 397 L 96 396 L 93 396 L 89 397 L 88 398 L 85 399 L 89 399 L 92 400 L 94 401 L 99 406 L 100 408 L 97 411 L 96 413 L 96 416 L 97 419 L 99 422 L 98 426 L 97 427 L 96 429 L 95 425 L 93 422 L 92 419 L 92 411 L 91 409 L 90 408 L 86 405 L 86 403 L 84 401 L 82 400 L 73 399 L 68 399 L 65 400 L 63 401 L 61 402 L 57 406 L 55 409 L 54 411 L 53 414 L 53 417 L 52 418 L 53 420 L 54 417 L 60 411 L 63 410 L 71 411 L 71 415 L 74 418 L 76 419 L 79 419 L 81 421 L 82 427 L 84 434 L 79 431 L 76 427 L 72 425 L 66 425 L 64 426 L 62 428 L 59 428 L 57 429 L 54 431 L 51 434 L 48 440 L 48 452 L 49 455 L 50 457 L 52 459 L 53 461 L 53 457 L 52 456 L 52 450 L 53 447 L 54 445 L 55 443 L 56 442 L 58 441 L 60 441 L 62 439 L 64 443 L 71 444 L 74 442 L 77 444 L 82 447 L 83 452 L 85 454 L 85 455 L 90 459 L 90 464 L 91 468 L 92 469 L 92 471 L 89 474 L 88 476 L 87 485 L 86 485 L 84 487 L 79 487 L 77 486 L 75 485 L 71 480 L 69 479 L 70 481 L 70 483 L 71 485 L 72 487 L 77 492 L 83 495 L 92 495 L 94 494 L 96 492 L 96 491 L 98 489 L 101 488 L 103 486 L 104 483 L 104 480 L 104 472 L 108 477 L 110 480 L 112 483 L 117 494 L 121 499 L 121 508 L 122 511 L 124 514 L 127 517 L 128 519 L 129 522 L 129 524 L 127 528 L 125 530 L 122 532 L 127 532 L 131 530 L 133 528 L 135 525 L 136 523 L 137 518 L 138 524 L 139 525 L 139 530 L 138 532 L 137 534 L 134 538 L 137 537 L 139 536 L 141 535 L 145 531 L 147 528 L 148 526 L 149 523 L 149 513 L 147 507 L 148 505 L 150 502 L 152 500 L 154 506 L 154 510 L 155 514 L 156 518 L 158 523 L 160 528 L 164 536 L 167 541 L 173 550 L 178 556 L 189 567 L 195 572 L 199 575 L 206 580 L 211 583 L 218 587 L 220 588 L 222 589 L 231 593 L 236 595 L 241 597 L 249 599 L 257 602 L 262 604 L 267 606 L 276 610 L 286 616 L 293 621 L 304 632 L 306 635 L 310 643 L 311 646 L 312 650 L 312 655 L 313 656 L 313 660 L 312 661 L 312 666 L 311 669 L 310 672 L 307 678 L 305 681 L 301 685 L 297 688 L 294 690 L 289 692 L 285 693 L 272 693 L 269 692 L 264 690 L 251 683 L 248 682 L 245 681 L 240 680 L 236 681 L 238 682 L 243 684 L 245 686 L 246 686 L 247 687 L 256 697 L 240 698 L 237 697 L 234 696 L 228 693 L 223 689 L 209 682 L 206 681 L 203 680 L 198 679 L 192 678 L 187 678 L 179 680 L 183 680 L 192 683 L 194 684 L 196 685 L 199 687 L 206 694 L 208 698 L 210 700 L 208 701 L 207 702 L 202 702 L 196 704 L 190 704 L 184 703 L 175 700 L 170 699 L 163 698 L 157 698 L 151 699 L 147 700 L 144 701 L 141 702 L 134 706 L 131 708 L 128 712 L 131 710 L 134 709 L 150 709 L 153 710 L 155 711 L 157 712 L 163 716 L 161 718 L 156 721 L 148 726 L 146 727 L 142 728 L 138 729 L 129 730 L 124 731 L 119 733 L 111 737 L 108 739 L 100 747 L 97 751 L 93 762 L 98 756 L 101 754 L 107 751 L 110 750 L 116 749 L 118 749 L 119 750 L 123 751 L 120 754 L 118 757 L 114 765 L 106 773 L 100 777 L 90 787 L 88 790 L 86 793 L 83 799 L 81 804 L 80 809 L 80 818 L 81 815 L 82 813 L 83 811 L 85 808 L 92 801 L 95 799 L 97 798 L 99 798 L 102 798 L 102 801 L 101 810 L 100 814 L 99 817 L 98 819 L 89 835 L 87 842 L 86 846 L 86 865 L 87 870 L 90 874 L 89 871 L 90 865 L 91 861 L 92 858 L 93 856 L 95 853 L 98 849 L 100 847 L 101 849 L 102 850 L 103 854 L 105 861 L 106 866 L 106 871 L 104 882 L 104 890 L 105 897 L 106 901 L 107 904 L 109 908 L 112 914 L 114 917 L 117 921 L 120 924 L 120 922 L 118 919 L 117 916 L 116 912 L 116 900 L 117 897 L 121 894 L 121 895 L 123 898 L 127 902 L 130 906 L 134 914 L 136 922 L 139 928 L 141 931 L 145 935 L 145 936 L 148 939 L 152 942 L 155 944 L 163 948 L 167 949 L 165 946 L 164 946 L 162 944 L 162 943 L 159 940 L 157 937 L 155 932 L 156 929 L 158 930 L 160 931 L 165 935 L 179 942 L 184 944 L 208 951 L 220 955 L 225 957 L 234 961 L 236 962 L 245 968 L 251 973 L 256 978 L 260 983 L 263 988 L 264 990 L 265 992 L 266 995 L 267 998 L 268 1004 L 268 1013 L 267 1018 L 266 1021 L 265 1024 L 264 1026 L 263 1028 L 261 1031 L 258 1035 L 254 1039 L 251 1041 L 245 1044 L 241 1045 L 230 1045 L 225 1043 L 220 1042 L 210 1043 L 215 1044 L 217 1045 L 219 1046 L 222 1048 L 226 1051 L 226 1054 L 223 1055 L 218 1056 L 216 1056 L 211 1055 L 208 1054 L 201 1050 L 196 1048 L 193 1047 L 188 1046 L 182 1046 L 176 1047 L 175 1048 L 173 1049 L 178 1049 L 182 1050 L 184 1051 L 186 1052 L 189 1054 L 193 1061 L 189 1062 L 179 1062 L 168 1058 L 162 1057 L 155 1057 L 150 1058 L 147 1059 L 145 1060 L 142 1062 L 139 1064 L 137 1066 L 139 1066 L 140 1065 L 143 1064 L 152 1064 L 155 1065 L 158 1066 L 162 1069 L 164 1071 L 159 1074 L 152 1077 L 147 1078 L 139 1078 L 135 1079 L 132 1080 L 129 1081 L 127 1082 L 125 1083 L 122 1085 L 112 1095 L 111 1097 L 110 1099 L 110 1101 L 113 1098 L 116 1096 L 118 1095 L 120 1094 L 125 1093 L 133 1095 L 131 1096 L 128 1100 L 126 1104 L 123 1107 L 116 1111 L 107 1120 L 104 1124 L 103 1126 L 102 1128 L 100 1133 L 99 1137 L 99 1143 L 101 1140 L 102 1137 L 107 1132 L 110 1130 L 114 1128 L 115 1130 L 111 1135 L 110 1137 L 109 1139 L 107 1144 L 106 1147 L 105 1151 L 104 1156 L 104 1177 L 105 1182 L 106 1183 L 107 1185 L 107 1179 L 108 1175 L 111 1169 L 114 1165 L 115 1167 L 116 1168 L 117 1171 L 118 1175 L 119 1181 L 119 1197 L 120 1202 L 121 1205 L 122 1207 L 123 1209 L 125 1212 L 133 1220 L 135 1220 L 133 1218 L 131 1215 L 130 1212 L 129 1209 L 129 1204 L 130 1203 L 131 1201 L 136 1206 L 136 1207 L 140 1211 L 145 1215 L 149 1218 L 152 1220 L 155 1222 L 160 1225 L 166 1228 L 175 1232 L 187 1236 L 201 1243 L 204 1245 L 209 1249 L 217 1257 L 220 1261 L 224 1269 L 225 1273 L 226 1278 L 226 1287 L 225 1292 L 224 1295 L 220 1303 L 218 1306 L 208 1316 L 201 1320 L 199 1321 L 193 1323 L 185 1325 L 177 1329 L 174 1331 L 171 1334 L 170 1334 L 168 1336 L 164 1341 L 163 1344 L 168 1340 L 171 1338 L 177 1335 L 180 1334 L 185 1333 L 203 1333 L 207 1332 L 210 1332 L 203 1339 L 196 1344 L 194 1345 L 192 1346 L 187 1348 L 174 1352 L 172 1353 L 165 1357 L 162 1359 L 158 1362 L 152 1368 L 149 1372 L 147 1375 L 144 1381 L 141 1390 L 140 1394 L 140 1401 L 141 1398 L 144 1392 L 146 1389 L 148 1386 L 154 1380 L 157 1378 L 160 1376 L 170 1371 L 173 1372 L 168 1377 L 166 1380 L 165 1382 L 163 1387 L 162 1390 L 162 1393 L 161 1396 L 159 1401 L 156 1406 L 148 1414 L 138 1421 L 130 1429 L 128 1432 L 126 1436 L 123 1442 L 122 1446 L 122 1452 L 124 1446 L 126 1442 L 128 1439 L 135 1432 L 138 1430 L 141 1428 L 148 1426 L 156 1422 L 159 1420 L 168 1411 L 170 1407 L 171 1410 L 170 1411 L 168 1419 L 167 1431 L 166 1435 L 165 1438 L 163 1442 L 160 1448 L 157 1452 L 153 1457 L 146 1464 L 143 1468 L 140 1473 L 139 1475 L 138 1477 L 135 1486 L 134 1492 L 134 1505 L 135 1506 L 136 1511 L 136 1502 L 137 1497 L 138 1494 L 142 1486 L 144 1483 L 154 1473 L 157 1472 L 161 1469 L 167 1463 L 170 1457 L 172 1461 L 173 1465 L 174 1469 L 175 1474 L 176 1479 L 177 1487 L 177 1495 L 176 1503 L 175 1507 L 174 1510 L 173 1513 L 171 1518 L 168 1523 L 165 1527 L 161 1532 L 157 1536 L 153 1539 L 150 1541 L 147 1543 L 143 1545 L 137 1548 L 135 1548 L 133 1550 L 135 1550 L 136 1549 L 143 1548 L 146 1547 L 149 1546 L 154 1544 L 156 1543 L 163 1539 L 166 1537 L 176 1527 L 179 1523 L 181 1520 L 184 1515 L 185 1513 L 187 1508 L 188 1505 L 189 1502 L 190 1497 L 191 1492 L 191 1475 L 190 1468 L 189 1463 L 186 1453 L 185 1448 L 184 1439 L 184 1433 L 185 1424 L 186 1420 L 187 1417 L 188 1414 L 192 1406 L 194 1403 L 197 1400 L 199 1408 L 201 1405 L 205 1396 L 207 1394 L 208 1396 L 207 1398 L 203 1405 L 201 1410 L 200 1414 L 199 1418 L 198 1424 L 198 1435 L 199 1440 L 200 1444 L 201 1448 L 203 1453 L 204 1455 L 206 1457 L 208 1460 L 208 1458 L 207 1457 L 206 1451 L 206 1436 L 207 1433 L 208 1430 L 209 1428 L 210 1426 L 216 1418 L 218 1414 L 219 1418 L 218 1433 L 219 1438 L 220 1442 L 221 1445 L 222 1448 L 224 1451 L 225 1454 L 226 1458 L 227 1463 L 227 1482 L 226 1487 L 223 1496 L 221 1499 L 224 1497 L 227 1492 L 231 1484 L 232 1481 L 233 1477 L 234 1471 L 234 1450 L 232 1442 L 232 1427 L 233 1420 L 234 1416 L 235 1413 L 236 1410 L 243 1396 L 247 1391 L 248 1383 L 249 1373 L 250 1384 L 249 1386 L 251 1384 L 255 1376 L 256 1373 L 257 1370 L 258 1366 L 258 1362 L 260 1356 L 261 1358 L 262 1359 L 263 1363 L 265 1371 L 265 1376 L 266 1377 L 266 1381 L 265 1388 L 264 1392 L 263 1395 L 261 1399 L 258 1405 L 256 1407 L 255 1409 L 264 1401 L 267 1397 L 269 1394 L 272 1389 L 273 1387 L 275 1382 L 276 1379 L 277 1375 L 278 1371 L 279 1362 L 279 1356 L 278 1355 L 278 1348 L 277 1342 L 275 1337 L 274 1332 L 274 1321 L 275 1316 L 277 1311 L 278 1305 L 288 1315 L 291 1321 L 292 1325 L 293 1330 L 293 1337 L 294 1334 L 295 1333 L 296 1328 L 296 1310 L 295 1306 L 294 1303 L 293 1300 L 290 1294 L 288 1291 L 286 1288 L 282 1284 L 279 1280 L 276 1274 L 275 1271 L 275 1268 L 272 1263 L 275 1262 L 276 1263 L 279 1263 L 282 1264 L 284 1265 L 286 1266 L 291 1270 L 293 1272 L 294 1275 L 297 1278 L 296 1273 L 295 1270 L 292 1264 L 290 1261 L 288 1258 L 281 1251 L 278 1249 L 275 1247 L 270 1245 L 265 1244 L 259 1241 L 256 1239 L 248 1231 L 250 1230 L 251 1229 L 254 1228 L 260 1227 L 262 1227 L 267 1228 L 270 1229 L 273 1230 L 276 1232 L 271 1226 L 268 1224 L 260 1220 L 257 1219 L 252 1218 L 231 1218 L 224 1217 L 220 1216 L 216 1215 L 213 1214 L 206 1211 L 201 1208 L 197 1205 L 193 1202 L 185 1194 L 183 1191 L 181 1188 L 180 1186 L 179 1184 L 177 1179 L 176 1175 L 175 1170 L 175 1161 L 176 1155 L 177 1151 L 178 1148 L 179 1145 L 182 1139 L 184 1136 L 196 1124 L 199 1122 L 202 1120 L 216 1113 L 219 1112 L 222 1111 L 229 1109 L 243 1106 L 253 1105 L 262 1103 L 271 1100 L 276 1098 L 281 1096 L 285 1094 L 293 1089 L 294 1092 L 293 1095 L 292 1097 L 291 1099 L 289 1102 L 287 1104 L 283 1107 L 282 1107 L 281 1109 L 283 1108 L 288 1107 L 294 1104 L 297 1102 L 301 1099 L 305 1095 L 308 1091 L 311 1086 L 312 1084 L 314 1079 L 315 1074 L 316 1072 L 317 1070 L 323 1061 L 325 1058 L 329 1057 L 330 1060 L 331 1063 L 332 1068 L 332 1073 L 331 1078 L 330 1081 L 329 1082 L 329 1084 L 332 1081 L 333 1078 L 336 1075 L 337 1073 L 338 1071 L 339 1068 L 340 1065 L 341 1061 L 342 1056 L 342 1046 L 341 1040 L 339 1035 L 339 1024 L 341 1018 L 342 1011 L 351 1020 L 355 1028 L 356 1032 L 356 1037 L 357 1034 L 358 1033 L 358 1014 L 355 1005 L 352 999 L 350 996 L 343 988 L 340 982 L 339 978 L 338 974 L 339 969 L 341 969 L 344 970 L 346 971 L 348 972 L 352 975 L 355 978 L 357 981 L 357 982 L 359 983 L 359 981 L 358 980 L 358 977 L 357 974 L 356 971 L 355 969 L 352 964 L 349 960 L 345 956 L 340 952 L 337 950 L 332 948 L 326 944 L 322 940 L 318 933 L 316 928 L 321 927 L 328 927 L 332 928 L 335 929 L 342 933 L 344 933 L 341 930 L 341 929 L 334 922 L 331 920 L 328 918 L 326 917 L 324 916 L 319 914 L 316 913 L 310 912 L 301 912 L 297 911 L 294 910 L 289 908 L 287 907 L 276 900 L 278 898 L 286 894 L 289 893 L 294 892 L 299 892 L 300 893 L 306 893 L 307 894 L 309 893 L 306 892 L 304 890 L 302 889 L 297 887 L 294 886 L 289 885 L 271 885 L 265 887 L 259 888 L 251 888 L 246 887 L 240 885 L 239 884 L 237 883 L 241 880 L 249 876 L 252 875 L 258 874 L 255 874 L 254 873 L 238 873 L 229 875 L 218 874 L 215 873 L 207 869 L 204 867 L 200 864 L 195 859 L 192 855 L 188 847 L 187 844 L 186 840 L 185 836 L 185 827 L 186 822 L 187 819 L 188 816 L 192 808 L 194 805 L 205 794 L 209 791 L 212 789 L 216 787 L 222 784 L 234 780 L 239 779 L 244 778 L 250 777 L 260 776 L 282 776 L 290 775 L 297 774 L 303 773 L 304 772 L 309 773 L 307 775 L 305 782 L 302 788 L 301 790 L 294 791 L 290 787 L 287 786 L 284 786 L 277 787 L 274 790 L 270 795 L 269 796 L 268 798 L 266 802 L 267 813 L 268 811 L 268 809 L 269 807 L 274 802 L 276 801 L 278 801 L 282 804 L 287 804 L 291 802 L 296 805 L 290 806 L 288 807 L 285 809 L 284 811 L 284 814 L 282 816 L 281 816 L 280 817 L 279 819 L 278 821 L 278 827 L 279 830 L 280 832 L 282 835 L 287 839 L 289 839 L 291 840 L 287 836 L 286 834 L 285 832 L 285 829 L 286 826 L 287 824 L 291 821 L 296 822 L 298 821 L 300 819 L 302 818 L 304 819 L 308 821 L 311 821 L 312 820 L 315 821 L 320 827 L 323 828 L 325 830 L 327 833 L 328 835 L 327 837 L 326 840 L 326 843 L 326 845 L 329 849 L 324 854 L 322 855 L 319 856 L 315 856 L 312 855 L 311 854 L 309 854 L 312 857 L 314 858 L 316 859 L 319 860 L 328 860 L 330 859 L 332 858 L 335 856 L 337 854 L 338 852 L 338 849 L 342 845 L 343 843 L 343 838 L 342 836 L 341 834 L 339 833 L 338 829 L 334 825 L 336 824 L 338 825 L 343 828 L 347 829 L 348 834 L 351 837 L 354 837 L 356 839 L 356 846 L 355 849 L 354 851 L 347 857 L 352 857 L 358 854 L 362 850 L 365 844 L 365 834 L 367 831 L 368 827 L 367 823 L 366 821 L 364 819 L 361 818 L 360 815 L 356 811 L 353 810 L 348 811 L 346 809 L 344 808 L 342 807 L 339 807 L 338 806 L 336 806 L 335 807 L 333 807 L 327 802 L 324 800 L 322 800 L 320 797 L 322 793 L 324 790 L 328 786 L 330 783 L 333 777 L 336 776 L 339 774 L 346 767 L 347 765 L 348 761 L 349 754 L 350 754 L 353 752 L 358 747 L 359 747 L 363 743 L 364 748 L 363 752 L 359 760 L 353 767 L 355 766 L 359 764 L 362 762 L 366 759 L 371 754 L 375 749 L 377 745 L 380 739 L 383 730 L 383 725 L 384 721 L 385 718 L 386 716 L 387 714 L 392 707 L 393 704 L 396 704 L 397 706 L 400 712 L 401 716 L 401 726 L 400 731 L 399 732 L 399 734 L 401 732 L 404 726 L 406 721 L 407 718 L 408 714 L 409 709 L 409 695 L 408 688 L 404 677 L 403 672 L 403 667 L 404 666 L 404 660 L 406 653 L 415 662 L 418 668 L 420 674 L 420 677 L 421 657 L 420 652 L 419 649 L 418 646 L 414 638 L 412 635 L 403 625 L 400 619 L 396 608 L 395 605 L 397 604 L 402 605 L 405 606 L 407 607 L 409 608 L 411 610 L 414 611 L 415 612 L 421 620 L 421 618 L 420 617 L 420 614 L 419 611 L 415 603 L 413 600 L 403 590 L 400 588 L 396 586 L 390 584 L 388 582 L 386 582 L 383 580 L 380 578 L 372 570 L 372 569 L 368 565 L 370 563 L 375 562 L 388 562 L 392 563 L 398 566 L 401 568 L 400 566 L 396 561 L 394 559 L 393 559 L 390 556 L 387 554 L 384 552 L 382 551 L 379 550 L 376 549 L 372 548 L 366 547 L 348 547 L 343 546 L 340 545 L 338 544 L 336 543 L 329 539 L 327 537 L 330 534 L 337 530 L 342 528 L 346 527 L 362 528 L 361 526 L 359 525 L 355 523 L 352 522 L 348 521 L 343 520 L 328 520 L 324 521 L 320 522 L 316 524 L 312 525 L 307 526 L 300 526 L 296 525 L 290 523 L 288 521 L 290 519 L 293 517 L 301 513 L 306 512 L 312 512 L 309 510 L 307 509 L 302 508 L 293 508 L 286 509 L 280 511 L 270 511 L 265 510 L 260 508 L 257 506 L 250 499 L 248 496 L 247 494 L 246 491 L 245 488 L 244 483 L 244 478 L 245 477 L 245 471 L 246 467 L 248 463 L 249 467 L 250 471 L 251 474 L 252 477 L 255 480 L 258 481 L 260 481 L 263 480 L 267 478 L 269 476 L 269 475 L 271 473 L 272 474 L 282 469 L 285 468 L 289 467 L 292 467 L 295 467 L 294 471 L 293 474 L 289 479 L 288 481 L 288 488 L 289 493 L 295 499 L 297 500 L 300 500 L 303 502 L 308 502 L 309 501 L 312 500 L 309 500 L 307 498 L 306 498 L 305 497 L 303 493 L 303 491 L 305 488 L 306 479 L 307 481 L 309 483 L 310 483 L 311 486 L 312 488 L 314 490 L 316 491 L 318 492 L 326 492 L 329 491 L 331 490 L 337 484 L 338 482 L 339 480 L 339 478 L 335 482 L 333 483 L 331 484 L 325 484 L 323 483 L 320 479 L 321 471 L 318 466 L 319 461 L 325 455 L 326 453 L 326 450 L 328 448 L 333 444 L 335 443 L 338 443 L 341 441 L 345 444 L 349 444 L 350 443 L 351 442 L 353 441 L 355 442 L 359 446 L 360 449 L 360 455 L 359 459 L 358 460 L 358 462 L 362 458 L 365 452 L 366 448 L 366 443 L 365 439 L 364 437 L 363 435 L 359 431 L 357 430 L 354 429 L 352 426 L 350 425 L 346 425 L 344 426 L 340 429 L 337 430 L 335 430 L 332 431 L 330 433 L 329 431 L 333 426 L 334 424 L 335 420 L 336 418 L 343 416 L 346 413 L 347 409 L 355 409 L 357 410 L 362 415 L 364 419 L 364 412 L 363 409 L 362 407 L 355 400 L 353 399 L 350 398 L 344 398 L 343 399 L 337 398 L 334 399 L 331 402 L 331 404 L 325 410 L 325 416 L 322 420 L 320 425 L 319 420 L 317 415 L 318 413 L 320 411 L 319 404 L 319 402 L 324 397 L 326 396 L 329 395 L 335 396 L 334 394 L 332 393 L 329 392 L 320 392 L 317 393 L 315 394 L 311 397 L 309 401 L 308 402 L 307 402 L 305 404 L 304 406 L 303 408 L 303 411 L 304 414 L 307 417 L 306 428 L 308 432 L 305 436 L 304 438 L 304 441 L 303 443 L 300 446 L 292 447 L 278 447 L 274 448 L 271 448 L 273 443 L 273 426 L 277 421 L 283 415 L 287 410 L 290 405 L 294 398 L 295 396 L 296 392 L 297 390 L 304 389 L 308 388 L 310 387 L 313 385 L 316 383 L 318 381 L 318 380 L 321 377 L 323 374 L 325 370 L 326 367 L 321 371 L 318 373 L 316 374 L 310 374 L 306 370 L 307 367 L 309 362 L 310 356 L 314 357 L 319 359 L 326 359 L 328 358 L 331 356 L 333 352 L 330 354 L 322 354 L 321 353 L 319 352 L 327 345 L 331 337 L 332 334 L 333 331 L 334 327 L 334 321 L 335 320 L 334 317 L 333 319 L 332 323 L 331 325 L 324 332 L 322 333 L 320 334 L 317 335 L 314 334 L 314 325 L 313 317 L 313 315 L 317 308 L 318 305 L 319 301 L 319 288 L 318 283 L 317 282 L 316 280 L 316 286 L 315 290 L 314 293 L 312 297 L 310 299 L 309 294 L 307 288 L 304 279 L 302 272 L 305 273 L 309 275 L 313 276 L 317 277 L 323 278 L 331 278 L 336 277 L 339 276 L 341 275 L 347 269 L 348 267 L 348 259 L 347 256 L 345 253 L 343 247 L 343 243 L 344 240 L 349 235 L 351 234 L 354 233 L 358 232 L 381 232 L 387 231 L 390 230 L 393 229 L 395 228 L 397 227 L 400 225 L 406 219 L 408 216 L 409 214 L 410 211 L 411 207 L 411 193 L 410 189 L 409 186 L 408 183 L 401 170 L 400 167 L 399 163 L 399 155 L 400 152 L 401 149 L 403 146 L 406 143 L 409 141 L 413 140 L 420 140 L 423 141 L 427 142 L 422 139 L 419 138 L 410 138 L 407 139 L 405 140 L 399 146 L 398 148 L 397 150 L 396 153 L 395 159 L 396 165 L 397 169 L 398 172 L 402 179 L 405 186 L 406 190 L 407 194 L 407 204 L 406 208 L 403 214 L 401 217 L 398 220 L 395 222 L 393 223 L 391 224 L 388 225 L 385 226 L 380 227 L 354 227 L 351 228 L 345 231 L 339 237 L 338 240 L 338 243 L 337 244 L 337 246 L 338 247 L 338 250 L 341 255 L 343 261 L 343 263 L 342 266 L 338 270 L 336 271 L 332 272 L 321 272 L 317 271 L 313 270 L 303 266 L 299 265 L 294 264 L 298 262 L 303 261 L 305 260 L 307 259 L 310 257 L 314 253 L 317 248 L 313 251 L 311 252 L 309 253 L 300 253 L 294 251 L 293 250 L 291 249 L 295 247 L 306 242 L 310 239 L 311 238 L 312 236 L 318 231 L 321 229 L 329 225 L 339 225 L 340 226 L 342 225 L 339 223 L 333 220 L 330 219 L 326 218 L 317 218 L 313 219 L 310 220 L 307 221 L 305 223 L 301 223 L 302 221 L 303 220 L 307 217 L 313 214 L 317 214 L 321 213 L 327 210 L 331 207 L 334 204 L 337 200 L 338 198 L 339 196 L 341 191 L 342 187 L 342 182 L 343 181 L 342 179 L 340 182 L 338 186 L 334 190 L 328 193 L 325 194 L 321 195 L 309 196 L 306 195 L 311 192 L 313 190 L 313 189 L 316 185 L 321 180 L 323 179 L 330 179 L 328 178 L 323 177 L 318 177 L 314 178 L 311 179 L 308 180 L 303 183 L 302 180 L 303 178 L 304 176 L 310 170 L 313 168 L 315 167 L 317 166 L 319 166 L 321 165 L 323 164 L 330 157 L 332 154 L 333 152 L 334 150 L 335 147 L 336 144 L 337 139 L 336 131 L 336 133 L 335 136 L 334 138 L 333 140 L 331 143 L 327 147 L 324 149 L 318 152 L 315 153 L 311 153 L 308 154 L 302 157 L 299 159 L 292 166 L 291 163 L 292 161 L 293 160 L 299 155 L 300 153 L 298 152 L 302 150 L 305 148 L 310 143 L 311 141 L 312 138 L 312 125 L 310 119 L 310 126 L 309 130 L 308 133 L 306 136 L 304 138 L 302 139 L 300 140 L 293 142 L 291 143 L 284 148 L 284 145 L 287 134 L 291 124 L 296 115 L 299 111 L 318 92 L 320 89 L 321 87 L 322 85 L 325 76 L 326 72 L 326 56 L 325 60 L 323 67 L 322 70 L 317 79 L 315 78 L 315 80 L 314 83 L 313 85 L 312 87 L 308 91 L 304 93 L 300 97 L 299 97 L 296 100 L 295 95 L 297 89 L 298 83 L 299 77 L 299 50 L 298 43 L 297 39 L 294 30 L 293 28 L 291 26 L 290 24 L 290 34 L 291 35 L 291 62 L 290 71 L 289 76 L 288 81 L 286 89 L 285 90 L 284 92 L 279 85 L 276 79 L 275 76 L 274 72 L 273 67 L 273 85 L 274 90 L 275 91 L 274 94 L 267 96 L 263 99 L 260 102 L 257 106 L 255 110 L 253 112 L 252 110 L 253 100 L 251 93 L 251 88 L 252 83 L 253 80 L 256 74 L 258 71 L 269 61 L 269 59 L 267 60 L 263 62 L 257 65 L 254 67 L 246 75 L 243 79 L 242 81 L 241 84 L 240 87 L 239 92 L 239 99 L 238 102 L 237 104 L 233 110 L 232 99 L 230 101 L 229 104 L 227 106 L 226 104 L 225 103 L 225 93 L 228 87 L 229 84 L 230 79 L 230 75 L 229 74 L 229 69 L 225 61 L 223 59 L 223 62 L 224 63 L 224 74 L 223 77 L 222 79 L 221 81 L 215 89 L 212 94 L 210 99 L 211 112 L 210 116 L 207 110 L 205 111 L 204 115 L 203 121 L 202 113 L 203 112 L 203 105 L 202 101 L 201 99 L 200 97 L 198 94 L 195 91 L 192 89 L 191 89 L 189 88 L 193 92 L 194 94 L 195 97 L 195 103 L 193 109 L 190 115 L 189 118 L 188 123 L 187 137 L 185 130 L 184 132 L 183 139 L 183 146 L 182 154 L 180 158 L 179 162 L 177 155 L 177 142 L 178 137 L 180 132 L 180 125 L 179 129 L 178 127 L 177 126 L 176 123 L 175 119 L 174 114 L 174 109 L 175 103 L 176 99 L 177 95 L 180 88 L 181 84 L 180 68 L 180 72 L 179 76 L 177 81 L 176 83 L 175 85 L 172 90 L 170 93 L 168 95 L 166 91 L 163 79 L 162 74 L 161 67 L 161 47 L 162 39 L 164 31 L 164 24 Z M 229 1384 L 230 1387 L 229 1390 L 228 1391 L 227 1393 L 226 1390 L 227 1387 L 228 1386 Z M 212 1358 L 206 1365 L 203 1368 L 194 1375 L 190 1379 L 183 1387 L 180 1392 L 177 1395 L 176 1392 L 180 1384 L 182 1381 L 184 1378 L 193 1369 L 198 1365 L 202 1362 L 204 1362 L 207 1360 Z M 225 379 L 227 380 L 227 385 L 224 381 Z M 233 367 L 234 369 L 232 371 L 231 369 Z M 236 359 L 238 363 L 239 373 L 240 371 L 241 374 L 241 377 L 239 378 L 237 376 L 236 374 L 236 366 L 234 364 Z M 248 353 L 250 357 L 251 363 L 252 365 L 249 369 L 247 363 L 246 361 L 247 358 Z M 259 340 L 262 345 L 264 345 L 261 348 L 259 344 L 258 347 L 257 342 Z M 209 321 L 211 325 L 213 330 L 214 332 L 216 333 L 220 332 L 222 330 L 230 330 L 232 332 L 234 330 L 237 333 L 238 331 L 238 329 L 239 327 L 241 325 L 242 322 L 243 324 L 244 325 L 245 328 L 245 333 L 244 335 L 242 337 L 237 337 L 232 335 L 220 335 L 216 336 L 213 338 L 211 338 L 207 334 L 207 325 Z M 203 304 L 206 304 L 210 305 L 214 305 L 220 303 L 232 303 L 237 305 L 245 304 L 248 305 L 248 311 L 246 315 L 244 317 L 242 313 L 242 309 L 241 307 L 239 307 L 238 309 L 233 308 L 218 307 L 215 309 L 213 307 L 211 307 L 211 310 L 210 314 L 209 315 L 208 317 L 205 312 L 204 309 Z M 195 295 L 197 298 L 194 298 Z M 207 286 L 211 286 L 213 291 L 207 290 L 207 289 Z M 244 285 L 246 287 L 246 289 L 243 292 L 238 290 L 241 287 L 242 287 Z M 271 274 L 268 277 L 265 284 L 268 285 L 264 287 L 262 290 L 262 293 L 265 296 L 261 296 L 261 298 L 262 301 L 262 304 L 260 303 L 260 307 L 263 310 L 264 313 L 265 317 L 262 316 L 262 318 L 263 319 L 264 323 L 262 324 L 263 327 L 265 330 L 265 334 L 263 335 L 263 343 L 262 338 L 261 336 L 258 332 L 260 331 L 263 332 L 261 327 L 259 325 L 259 321 L 261 322 L 261 320 L 258 315 L 261 314 L 260 311 L 258 309 L 257 307 L 258 299 L 256 298 L 258 296 L 259 293 L 259 286 L 262 280 L 264 277 L 266 275 Z M 262 259 L 266 260 L 264 261 L 263 262 L 262 264 Z M 275 209 L 276 212 L 275 214 L 274 216 L 268 222 L 267 224 L 267 234 L 266 237 L 265 239 L 261 243 L 259 244 L 257 245 L 250 245 L 246 249 L 245 246 L 244 244 L 249 240 L 251 238 L 252 236 L 255 240 L 257 239 L 258 237 L 257 234 L 254 235 L 254 232 L 254 230 L 255 228 L 257 225 L 263 219 L 264 216 L 266 214 L 268 213 L 268 212 L 270 210 L 271 215 L 272 213 Z M 176 205 L 178 209 L 180 212 L 183 214 L 183 210 L 186 213 L 187 210 L 188 215 L 189 217 L 190 219 L 195 224 L 197 227 L 198 230 L 199 235 L 196 236 L 197 239 L 200 239 L 201 237 L 202 239 L 209 244 L 207 246 L 206 248 L 202 245 L 196 245 L 193 244 L 188 239 L 187 236 L 187 225 L 185 222 L 182 219 L 181 219 L 179 217 L 177 214 L 176 212 L 175 210 Z M 140 172 L 142 171 L 144 176 Z M 137 170 L 139 169 L 141 171 L 139 172 Z M 154 153 L 157 153 L 159 154 L 156 155 Z M 275 93 L 277 97 L 278 102 L 278 111 L 277 115 L 276 119 L 272 131 L 269 137 L 268 130 L 267 126 L 265 124 L 264 128 L 263 115 L 264 110 L 265 107 L 266 104 L 267 102 L 269 99 Z"
        fill="#053A23"
        fill-rule="evenodd"
        clip-rule="evenodd"/>
</svg>
